<?xml version="1.0" encoding="UTF-8"?>
<!-- Generated by SVGo -->
<svg width="305.706mm" height="165.341mm" viewBox="0.000 0.000 305.706 165.341" xmlns="http://www.w3.org/2000/svg" xmlns:xlink="http://www.w3.org/1999/xlink">
<polygon points="295.706,5.001 296.099,5.016 296.489,5.062 296.874,5.139 297.252,5.245 297.620,5.381 297.976,5.545 298.319,5.737 298.645,5.955 298.954,6.198 299.242,6.465 299.508,6.753 299.752,7.062 299.970,7.388 300.162,7.731 300.326,8.087 300.462,8.455 300.568,8.833 300.645,9.218 300.691,9.608 300.706,10.001 300.706,155.341 300.691,155.734 300.645,156.124 300.568,156.509 300.462,156.887 300.326,157.255 300.162,157.611 299.970,157.954 299.752,158.280 299.508,158.589 299.242,158.877 298.954,159.144 298.645,159.387 298.319,159.605 297.976,159.797 297.620,159.961 297.252,160.097 296.874,160.203 296.489,160.280 296.099,160.326 295.706,160.341 10.001,160.341 9.608,160.326 9.218,160.280 8.833,160.203 8.455,160.097 8.087,159.961 7.731,159.797 7.388,159.605 7.062,159.387 6.753,159.144 6.465,158.877 6.198,158.589 5.955,158.280 5.737,157.954 5.545,157.611 5.381,157.255 5.245,156.887 5.139,156.509 5.062,156.124 5.016,155.734 5.000,155.341 5.001,10.001 5.016,9.608 5.062,9.218 5.139,8.833 5.245,8.455 5.381,8.087 5.545,7.731 5.737,7.388 5.955,7.062 6.198,6.753 6.465,6.465 6.753,6.198 7.062,5.955 7.388,5.737 7.731,5.545 8.087,5.381 8.455,5.245 8.833,5.139 9.218,5.062 9.608,5.016 10.001,5.000" style="fill:none;stroke-width:0.050000mm;stroke:black"/>
<polygon points="296.212,154.820 295.766,155.047 295.412,155.401 295.185,155.847 295.106,156.341 295.185,156.836 295.412,157.282 295.766,157.636 296.212,157.863 296.706,157.941 297.201,157.863 297.647,157.636 298.001,157.282 298.228,156.836 298.306,156.341 298.228,155.847 298.001,155.401 297.647,155.047 297.201,154.820 296.706,154.741" style="fill:none;stroke-width:0.050000mm;stroke:black"/>
<polygon points="152.359,154.820 151.913,155.047 151.559,155.401 151.332,155.847 151.253,156.341 151.332,156.836 151.559,157.282 151.913,157.636 152.359,157.863 152.853,157.941 153.348,157.863 153.794,157.636 154.148,157.282 154.375,156.836 154.453,156.341 154.375,155.847 154.148,155.401 153.794,155.047 153.348,154.820 152.853,154.741" style="fill:none;stroke-width:0.050000mm;stroke:black"/>
<polygon points="8.506,154.820 8.059,155.047 7.706,155.401 7.479,155.847 7.400,156.341 7.479,156.836 7.706,157.282 8.059,157.636 8.506,157.863 9.001,157.941 9.495,157.863 9.941,157.636 10.295,157.282 10.522,156.836 10.601,156.341 10.522,155.847 10.295,155.401 9.941,155.047 9.495,154.820 9.001,154.741" style="fill:none;stroke-width:0.050000mm;stroke:black"/>
<polygon points="296.212,81.149 295.766,81.377 295.412,81.731 295.185,82.177 295.106,82.671 295.185,83.165 295.412,83.611 295.766,83.965 296.212,84.193 296.706,84.271 297.201,84.193 297.647,83.965 298.001,83.611 298.228,83.165 298.306,82.671 298.228,82.177 298.001,81.731 297.647,81.377 297.201,81.149 296.706,81.071" style="fill:none;stroke-width:0.050000mm;stroke:black"/>
<polygon points="8.506,81.149 8.059,81.377 7.706,81.731 7.479,82.177 7.400,82.671 7.479,83.165 7.706,83.611 8.059,83.965 8.506,84.193 9.001,84.271 9.495,84.193 9.941,83.965 10.295,83.611 10.522,83.165 10.601,82.671 10.522,82.177 10.295,81.731 9.941,81.377 9.495,81.149 9.001,81.071" style="fill:none;stroke-width:0.050000mm;stroke:black"/>
<polygon points="152.359,7.479 151.913,7.706 151.559,8.059 151.332,8.506 151.253,9.001 151.332,9.495 151.559,9.941 151.913,10.295 152.359,10.522 152.853,10.601 153.348,10.522 153.794,10.295 154.148,9.941 154.375,9.495 154.453,9.001 154.375,8.506 154.148,8.059 153.794,7.706 153.348,7.479 152.853,7.401" style="fill:none;stroke-width:0.050000mm;stroke:black"/>
<polygon points="296.212,7.479 295.766,7.706 295.412,8.059 295.185,8.506 295.106,9.001 295.185,9.495 295.412,9.941 295.766,10.295 296.212,10.522 296.706,10.601 297.201,10.522 297.647,10.295 298.001,9.941 298.228,9.495 298.306,9.001 298.228,8.506 298.001,8.059 297.647,7.706 297.201,7.479 296.706,7.401" style="fill:none;stroke-width:0.050000mm;stroke:black"/>
<polygon points="8.506,7.479 8.059,7.706 7.706,8.059 7.479,8.506 7.400,9.001 7.479,9.495 7.706,9.941 8.059,10.295 8.506,10.522 9.001,10.601 9.495,10.522 9.941,10.295 10.295,9.941 10.522,9.495 10.601,9.001 10.522,8.506 10.295,8.059 9.941,7.706 9.495,7.479 9.001,7.401" style="fill:none;stroke-width:0.050000mm;stroke:black"/>
</svg>