<?xml version="1.0" encoding="UTF-8"?>
<!-- Generated by SVGo -->
<svg width="305.706mm" height="165.341mm" viewBox="0.000 0.000 305.706 165.341" xmlns="http://www.w3.org/2000/svg" xmlns:xlink="http://www.w3.org/1999/xlink">
<polygon points="295.706,5.001 296.099,5.016 296.489,5.062 296.874,5.139 297.252,5.245 297.620,5.381 297.976,5.545 298.319,5.737 298.645,5.955 298.954,6.198 299.242,6.465 299.508,6.753 299.752,7.062 299.970,7.388 300.162,7.731 300.326,8.087 300.462,8.455 300.568,8.833 300.645,9.218 300.691,9.608 300.706,10.001 300.706,155.341 300.691,155.734 300.645,156.124 300.568,156.509 300.462,156.887 300.326,157.255 300.162,157.611 299.970,157.954 299.752,158.280 299.508,158.589 299.242,158.877 298.954,159.144 298.645,159.387 298.319,159.605 297.976,159.797 297.620,159.961 297.252,160.097 296.874,160.203 296.489,160.280 296.099,160.326 295.706,160.341 10.001,160.341 9.608,160.326 9.218,160.280 8.833,160.203 8.455,160.097 8.087,159.961 7.731,159.797 7.388,159.605 7.062,159.387 6.753,159.144 6.465,158.877 6.198,158.589 5.955,158.280 5.737,157.954 5.545,157.611 5.381,157.255 5.245,156.887 5.139,156.509 5.062,156.124 5.016,155.734 5.000,155.341 5.001,10.001 5.016,9.608 5.062,9.218 5.139,8.833 5.245,8.455 5.381,8.087 5.545,7.731 5.737,7.388 5.955,7.062 6.198,6.753 6.465,6.465 6.753,6.198 7.062,5.955 7.388,5.737 7.731,5.545 8.087,5.381 8.455,5.245 8.833,5.139 9.218,5.062 9.608,5.016 10.001,5.000" style="fill:none;stroke-width:0.050000mm;stroke:black"/>
<polygon points="296.212,154.820 295.766,155.047 295.412,155.401 295.185,155.847 295.106,156.341 295.185,156.836 295.412,157.282 295.766,157.636 296.212,157.863 296.706,157.941 297.201,157.863 297.647,157.636 298.001,157.282 298.228,156.836 298.306,156.341 298.228,155.847 298.001,155.401 297.647,155.047 297.201,154.820 296.706,154.741" style="fill:none;stroke-width:0.050000mm;stroke:black"/>
<polygon points="152.359,154.820 151.913,155.047 151.559,155.401 151.332,155.847 151.253,156.341 151.332,156.836 151.559,157.282 151.913,157.636 152.359,157.863 152.853,157.941 153.348,157.863 153.794,157.636 154.148,157.282 154.375,156.836 154.453,156.341 154.375,155.847 154.148,155.401 153.794,155.047 153.348,154.820 152.853,154.741" style="fill:none;stroke-width:0.050000mm;stroke:black"/>
<polygon points="8.506,154.820 8.059,155.047 7.706,155.401 7.479,155.847 7.400,156.341 7.479,156.836 7.706,157.282 8.059,157.636 8.506,157.863 9.001,157.941 9.495,157.863 9.941,157.636 10.295,157.282 10.522,156.836 10.601,156.341 10.522,155.847 10.295,155.401 9.941,155.047 9.495,154.820 9.001,154.741" style="fill:none;stroke-width:0.050000mm;stroke:black"/>
<polygon points="189.542,116.157 189.685,116.970 183.510,118.058 183.810,119.757 182.845,119.927 183.418,123.177 184.383,123.007 184.683,124.706 189.085,123.930 189.350,125.432 188.759,125.536 188.620,124.748 185.567,125.286 185.706,126.074 184.721,126.248 187.152,140.035 188.137,139.861 188.276,140.649 191.329,140.111 191.190,139.323 191.780,139.219 192.045,140.721 187.643,141.497 187.943,143.196 186.978,143.366 187.551,146.616 188.516,146.445 188.815,148.144 194.990,147.055 195.133,147.868 197.891,147.382 197.748,146.569 200.929,146.008 200.629,144.310 201.535,144.150 200.962,140.900 200.056,141.060 199.756,139.361 196.575,139.922 196.310,138.420 196.902,138.316 197.040,139.104 200.093,138.565 199.954,137.777 200.939,137.604 198.508,123.817 197.523,123.990 197.384,123.202 194.332,123.741 194.470,124.529 193.880,124.633 193.615,123.131 196.796,122.570 196.496,120.871 197.402,120.711 196.829,117.462 195.923,117.621 195.624,115.923 192.443,116.483 192.299,115.671" style="fill:none;stroke-width:0.050000mm;stroke:black"/>
<polygon points="114.618,115.656 111.437,115.096 111.138,116.794 110.232,116.635 109.659,119.884 110.565,120.044 110.265,121.743 113.446,122.304 113.181,123.806 112.590,123.702 112.729,122.914 109.676,122.375 109.537,123.163 108.553,122.990 106.122,136.777 107.106,136.951 106.967,137.738 110.020,138.277 110.159,137.489 110.750,137.593 110.485,139.095 107.304,138.534 107.005,140.233 106.099,140.073 105.526,143.323 106.432,143.483 106.132,145.181 109.313,145.742 109.170,146.555 111.927,147.041 112.071,146.228 118.245,147.317 118.545,145.618 119.510,145.789 120.083,142.539 119.118,142.369 119.418,140.670 115.015,139.894 115.280,138.392 115.871,138.496 115.732,139.284 118.785,139.822 118.924,139.034 119.909,139.208 122.340,125.421 121.355,125.247 121.494,124.459 118.441,123.921 118.302,124.709 117.711,124.605 117.976,123.103 122.378,123.879 122.678,122.180 123.643,122.350 124.216,119.100 123.251,118.930 123.550,117.231 117.376,116.143 117.519,115.330 114.761,114.844" style="fill:none;stroke-width:0.050000mm;stroke:black"/>
<polygon points="168.631,107.271 168.774,108.083 162.600,109.172 162.899,110.871 161.934,111.041 162.507,114.291 163.472,114.121 163.772,115.819 168.174,115.043 168.439,116.545 167.848,116.649 167.709,115.861 164.656,116.400 164.795,117.188 163.810,117.361 166.241,131.149 167.226,130.974 167.365,131.763 170.418,131.224 170.279,130.437 170.870,130.333 171.135,131.834 166.732,132.610 167.032,134.309 166.067,134.479 166.640,137.729 167.605,137.559 167.905,139.258 174.079,138.169 174.223,138.982 176.980,138.495 176.837,137.683 180.018,137.122 179.718,135.423 180.624,135.263 180.051,132.014 179.145,132.173 178.846,130.474 175.665,131.034 175.400,129.533 175.991,129.429 176.130,130.217 179.183,129.679 179.044,128.890 180.028,128.717 177.597,114.930 176.613,115.104 176.474,114.316 173.421,114.854 173.560,115.642 172.969,115.746 172.704,114.244 175.885,113.684 175.585,111.985 176.491,111.825 175.918,108.575 175.012,108.735 174.713,107.036 171.532,107.597 171.389,106.785" style="fill:none;stroke-width:0.050000mm;stroke:black"/>
<polygon points="135.529,106.770 132.348,106.209 132.049,107.908 131.142,107.748 130.569,110.998 131.475,111.158 131.176,112.857 134.357,113.417 134.092,114.919 133.501,114.815 133.640,114.027 130.587,113.489 130.448,114.277 129.462,114.103 127.032,127.890 128.016,128.063 127.878,128.852 130.931,129.390 131.069,128.602 131.661,128.706 131.396,130.208 128.215,129.647 127.916,131.346 127.010,131.187 126.437,134.436 127.343,134.596 127.043,136.295 130.224,136.856 130.081,137.668 132.838,138.155 132.981,137.342 139.156,138.431 139.456,136.732 140.421,136.902 140.994,133.652 140.029,133.482 140.328,131.783 135.926,131.007 136.191,129.506 136.782,129.610 136.643,130.396 139.696,130.936 139.835,130.147 140.820,130.322 143.251,116.534 142.266,116.361 142.405,115.573 139.352,115.034 139.213,115.822 138.622,115.718 138.887,114.216 143.289,114.992 143.589,113.294 144.554,113.464 145.127,110.214 144.162,110.044 144.461,108.345 138.286,107.256 138.430,106.444 135.672,105.958" style="fill:none;stroke-width:0.050000mm;stroke:black"/>
<polygon points="92.844,108.130 91.860,107.956 89.428,121.743 90.413,121.917 90.274,122.705 93.327,123.243 93.466,122.455 99.178,123.463 99.039,124.250 102.092,124.789 102.231,124.001 103.216,124.175 105.647,110.387 104.662,110.214 104.801,109.426 101.748,108.887 101.609,109.675 95.897,108.668 96.036,107.880 92.983,107.342" style="fill:none;stroke-width:0.050000mm;stroke:black"/>
<polygon points="201.000,108.869 201.174,109.854 200.386,109.993 200.925,113.046 201.712,112.907 202.720,118.619 201.932,118.758 202.470,121.811 203.258,121.672 203.432,122.656 217.219,120.225 217.045,119.241 217.833,119.102 217.295,116.049 216.507,116.188 215.500,110.476 216.288,110.337 215.749,107.284 214.961,107.423 214.788,106.438" style="fill:none;stroke-width:0.050000mm;stroke:black"/>
<polygon points="35.736,102.896 34.751,102.722 32.320,116.510 33.305,116.683 33.166,117.471 36.219,118.009 36.357,117.222 42.069,118.229 41.930,119.017 44.983,119.555 45.122,118.767 46.107,118.941 48.538,105.153 47.553,104.980 47.692,104.192 44.639,103.654 44.500,104.441 38.789,103.434 38.927,102.646 35.875,102.108" style="fill:none;stroke-width:0.050000mm;stroke:black"/>
<polygon points="55.323,101.514 54.338,101.340 51.907,115.127 52.892,115.301 52.753,116.089 55.806,116.627 55.945,115.839 61.657,116.847 61.518,117.634 64.570,118.173 64.710,117.385 65.695,117.559 68.126,103.771 67.141,103.598 67.280,102.810 64.227,102.271 64.088,103.059 58.376,102.052 58.515,101.264 55.462,100.726" style="fill:none;stroke-width:0.050000mm;stroke:black"/>
<polygon points="74.911,100.132 73.926,99.958 71.495,113.745 72.480,113.919 72.341,114.707 75.394,115.245 75.533,114.457 81.245,115.464 81.106,116.252 84.158,116.791 84.297,116.003 85.282,116.176 87.713,102.389 86.728,102.215 86.867,101.428 83.814,100.889 83.676,101.677 77.964,100.670 78.103,99.882 75.050,99.344" style="fill:none;stroke-width:0.050000mm;stroke:black"/>
<polygon points="262.799,102.808 262.973,103.793 262.185,103.932 262.723,106.985 263.511,106.846 264.518,112.558 263.731,112.697 264.269,115.750 265.057,115.611 265.230,116.596 279.018,114.165 278.844,113.180 279.632,113.041 279.094,109.988 278.306,110.127 277.299,104.415 278.086,104.276 277.548,101.223 276.760,101.362 276.587,100.377" style="fill:none;stroke-width:0.050000mm;stroke:black"/>
<polygon points="238.522,102.253 238.695,103.238 237.907,103.377 238.446,106.430 239.234,106.291 240.241,112.003 239.453,112.142 239.991,115.195 240.779,115.056 240.953,116.040 254.740,113.609 254.566,112.625 255.354,112.486 254.816,109.433 254.028,109.572 253.021,103.860 253.809,103.721 253.270,100.668 252.483,100.807 252.309,99.822" style="fill:none;stroke-width:0.050000mm;stroke:black"/>
<polygon points="218.934,100.871 219.108,101.856 218.320,101.995 218.858,105.048 219.646,104.909 220.653,110.621 219.865,110.760 220.404,113.812 221.191,113.674 221.365,114.658 235.152,112.227 234.979,111.242 235.767,111.104 235.228,108.051 234.440,108.190 233.433,102.478 234.221,102.339 233.683,99.286 232.895,99.425 232.721,98.440" style="fill:none;stroke-width:0.050000mm;stroke:black"/>
<polygon points="23.710,82.701 20.529,82.140 20.229,83.839 19.323,83.679 18.750,86.929 19.656,87.089 19.357,88.787 22.538,89.348 22.273,90.850 21.682,90.746 21.821,89.958 18.768,89.420 18.629,90.208 17.644,90.034 15.213,103.821 16.198,103.995 16.059,104.783 19.112,105.321 19.251,104.533 19.842,104.637 19.577,106.139 16.396,105.578 16.095,107.277 15.190,107.117 14.617,110.367 15.523,110.527 15.224,112.226 18.405,112.787 18.262,113.599 21.019,114.085 21.162,113.273 27.337,114.362 27.637,112.663 28.602,112.833 29.175,109.583 28.210,109.413 28.509,107.714 24.107,106.938 24.372,105.436 24.963,105.540 24.824,106.328 27.877,106.867 28.016,106.079 29.000,106.252 31.432,92.465 30.447,92.291 30.586,91.504 27.533,90.965 27.394,91.753 26.803,91.649 27.068,90.147 31.470,90.923 31.769,89.225 32.733,89.395 33.308,86.145 32.342,85.975 32.642,84.276 26.467,83.187 26.610,82.375 23.853,81.888" style="fill:none;stroke-width:0.050000mm;stroke:black"/>
<polygon points="179.759,98.107 179.933,99.092 179.145,99.230 179.683,102.283 180.471,102.144 181.478,107.856 180.690,107.995 181.228,111.048 182.016,110.909 182.190,111.894 195.977,109.463 195.804,108.478 196.591,108.339 196.053,105.286 195.265,105.425 194.258,99.713 195.046,99.574 194.508,96.522 193.720,96.660 193.546,95.676" style="fill:none;stroke-width:0.050000mm;stroke:black"/>
<polygon points="113.341,95.833 112.553,95.695 112.015,98.747 112.803,98.886 111.796,104.598 111.008,104.459 110.469,107.512 111.257,107.651 111.084,108.636 124.871,111.067 125.045,110.082 125.832,110.221 126.371,107.168 125.583,107.029 126.590,101.317 127.378,101.456 127.916,98.403 127.128,98.265 127.302,97.280 113.515,94.849" style="fill:none;stroke-width:0.050000mm;stroke:black"/>
<polygon points="197.692,90.109 197.866,91.093 197.078,91.232 197.617,94.285 198.404,94.146 199.412,99.858 198.624,99.997 199.162,103.050 199.950,102.911 200.124,103.896 213.911,101.465 213.737,100.480 214.525,100.341 213.987,97.288 213.199,97.427 212.192,91.715 212.980,91.576 212.441,88.523 211.653,88.662 211.480,87.678" style="fill:none;stroke-width:0.050000mm;stroke:black"/>
<polygon points="95.407,87.835 94.620,87.696 94.081,90.749 94.869,90.888 93.862,96.600 93.074,96.461 92.536,99.514 93.324,99.653 93.150,100.638 106.937,103.069 107.111,102.084 107.899,102.223 108.437,99.170 107.649,99.031 108.656,93.319 109.444,93.458 109.983,90.405 109.195,90.266 109.368,89.282 95.581,86.851" style="fill:none;stroke-width:0.050000mm;stroke:black"/>
<polygon points="254.801,84.875 254.975,85.860 254.187,85.998 254.725,89.051 255.513,88.912 256.520,94.624 255.733,94.763 256.270,97.816 257.059,97.677 257.232,98.662 271.020,96.231 270.846,95.246 271.634,95.107 271.096,92.054 270.308,92.193 269.301,86.481 270.088,86.342 269.550,83.290 268.762,83.428 268.589,82.444" style="fill:none;stroke-width:0.050000mm;stroke:black"/>
<polygon points="38.299,82.601 37.511,82.463 36.973,85.515 37.760,85.654 36.753,91.366 35.965,91.227 35.427,94.280 36.215,94.419 36.041,95.404 49.829,97.835 50.002,96.850 50.790,96.989 51.328,93.936 50.540,93.797 51.548,88.085 52.336,88.224 52.874,85.171 52.086,85.033 52.260,84.048 38.472,81.617" style="fill:none;stroke-width:0.050000mm;stroke:black"/>
<polygon points="235.214,83.493 235.387,84.477 234.599,84.616 235.138,87.669 235.926,87.530 236.933,93.242 236.145,93.381 236.683,96.434 237.471,96.295 237.645,97.280 251.432,94.849 251.258,93.864 252.046,93.725 251.508,90.672 250.720,90.811 249.713,85.099 250.501,84.960 249.962,81.907 249.175,82.046 249.001,81.062" style="fill:none;stroke-width:0.050000mm;stroke:black"/>
<polygon points="57.886,81.219 57.098,81.080 56.560,84.133 57.348,84.272 56.341,89.984 55.553,89.845 55.015,92.898 55.802,93.037 55.629,94.022 69.416,96.453 69.590,95.468 70.378,95.607 70.916,92.554 70.128,92.415 71.135,86.703 71.923,86.842 72.461,83.789 71.674,83.650 71.847,82.666 58.060,80.235" style="fill:none;stroke-width:0.050000mm;stroke:black"/>
<polygon points="215.626,82.110 215.800,83.095 215.012,83.234 215.550,86.287 216.338,86.148 217.345,91.860 216.557,91.999 217.096,95.052 217.883,94.913 218.057,95.898 231.844,93.467 231.671,92.482 232.459,92.343 231.920,89.290 231.132,89.429 230.125,83.717 230.913,83.578 230.375,80.525 229.587,80.664 229.413,79.679" style="fill:none;stroke-width:0.050000mm;stroke:black"/>
<polygon points="273.562,81.567 273.735,82.552 272.948,82.690 273.486,85.743 274.274,85.604 275.281,91.316 274.493,91.455 275.031,94.508 275.819,94.369 275.993,95.354 289.780,92.923 289.607,91.938 290.394,91.799 289.856,88.746 289.068,88.885 288.061,83.173 288.849,83.034 288.311,79.982 287.523,80.120 287.349,79.136" style="fill:none;stroke-width:0.050000mm;stroke:black"/>
<polygon points="77.474,79.837 76.686,79.698 76.148,82.751 76.936,82.890 75.928,88.602 75.141,88.463 74.602,91.516 75.390,91.655 75.216,92.640 89.004,95.071 89.177,94.086 89.965,94.225 90.504,91.172 89.716,91.033 90.723,85.321 91.511,85.460 92.049,82.407 91.261,82.268 91.435,81.283 77.647,78.852" style="fill:none;stroke-width:0.050000mm;stroke:black"/>
<polygon points="176.451,79.346 176.625,80.331 175.837,80.470 176.375,83.523 177.163,83.384 178.170,89.096 177.382,89.235 177.920,92.288 178.708,92.149 178.882,93.133 192.669,90.702 192.496,89.718 193.283,89.579 192.745,86.526 191.957,86.665 190.950,80.953 191.738,80.814 191.200,77.761 190.412,77.900 190.238,76.915" style="fill:none;stroke-width:0.050000mm;stroke:black"/>
<polygon points="116.649,77.073 115.861,76.934 115.323,79.987 116.111,80.126 115.104,85.838 114.316,85.699 113.777,88.752 114.565,88.891 114.392,89.875 128.179,92.306 128.353,91.322 129.140,91.461 129.679,88.408 128.890,88.269 129.897,82.557 130.686,82.696 131.224,79.643 130.436,79.504 130.610,78.519 116.823,76.088" style="fill:none;stroke-width:0.050000mm;stroke:black"/>
<polygon points="194.384,71.348 194.558,72.333 193.770,72.472 194.309,75.525 195.096,75.386 196.104,81.098 195.316,81.237 195.854,84.289 196.642,84.151 196.816,85.135 210.603,82.704 210.429,81.719 211.217,81.581 210.679,78.528 209.891,78.667 208.884,72.955 209.672,72.816 209.133,69.763 208.345,69.902 208.172,68.917" style="fill:none;stroke-width:0.050000mm;stroke:black"/>
<polygon points="98.715,69.075 97.928,68.936 97.389,71.989 98.177,72.128 97.170,77.840 96.382,77.701 95.844,80.754 96.632,80.892 96.458,81.877 110.245,84.308 110.419,83.324 111.207,83.462 111.745,80.410 110.957,80.271 111.964,74.559 112.752,74.698 113.291,71.645 112.503,71.506 112.676,70.521 98.889,68.090" style="fill:none;stroke-width:0.050000mm;stroke:black"/>
<polygon points="296.212,81.149 295.766,81.377 295.412,81.731 295.185,82.177 295.106,82.671 295.185,83.165 295.412,83.611 295.766,83.965 296.212,84.193 296.706,84.271 297.201,84.193 297.647,83.965 298.001,83.611 298.228,83.165 298.306,82.671 298.228,82.177 298.001,81.731 297.647,81.377 297.201,81.149 296.706,81.071" style="fill:none;stroke-width:0.050000mm;stroke:black"/>
<polygon points="8.506,81.149 8.059,81.377 7.706,81.731 7.479,82.177 7.400,82.671 7.479,83.165 7.706,83.611 8.059,83.965 8.506,84.193 9.001,84.271 9.495,84.193 9.941,83.965 10.295,83.611 10.522,83.165 10.601,82.671 10.522,82.177 10.295,81.731 9.941,81.377 9.495,81.149 9.001,81.071" style="fill:none;stroke-width:0.050000mm;stroke:black"/>
<polygon points="251.493,66.114 251.667,67.099 250.879,67.238 251.417,70.291 252.205,70.152 253.212,75.864 252.425,76.003 252.963,79.056 253.751,78.917 253.924,79.901 267.712,77.470 267.538,76.486 268.326,76.347 267.788,73.294 267.000,73.433 265.993,67.721 266.780,67.582 266.242,64.529 265.454,64.668 265.281,63.683" style="fill:none;stroke-width:0.050000mm;stroke:black"/>
<polygon points="41.607,63.841 40.819,63.702 40.281,66.755 41.068,66.894 40.061,72.606 39.273,72.467 38.735,75.520 39.523,75.659 39.349,76.643 53.137,79.074 53.310,78.090 54.098,78.229 54.636,75.176 53.848,75.037 54.856,69.325 55.644,69.464 56.182,66.411 55.394,66.272 55.568,65.287 41.780,62.856" style="fill:none;stroke-width:0.050000mm;stroke:black"/>
<polygon points="231.906,64.731 232.079,65.717 231.291,65.856 231.830,68.909 232.618,68.770 233.625,74.482 232.837,74.621 233.375,77.673 234.163,77.535 234.337,78.519 248.124,76.088 247.950,75.103 248.738,74.965 248.200,71.912 247.412,72.051 246.405,66.339 247.193,66.200 246.654,63.147 245.867,63.286 245.693,62.301" style="fill:none;stroke-width:0.050000mm;stroke:black"/>
<polygon points="61.194,62.459 60.406,62.320 59.868,65.373 60.656,65.511 59.649,71.224 58.861,71.085 58.323,74.138 59.110,74.276 58.937,75.261 72.724,77.692 72.898,76.708 73.686,76.846 74.224,73.794 73.436,73.655 74.443,67.943 75.231,68.082 75.769,65.029 74.982,64.889 75.155,63.905 61.368,61.474" style="fill:none;stroke-width:0.050000mm;stroke:black"/>
<polygon points="212.318,63.350 212.492,64.335 211.704,64.474 212.242,67.526 213.030,67.388 214.037,73.099 213.249,73.238 213.788,76.291 214.575,76.152 214.749,77.137 228.536,74.706 228.363,73.721 229.151,73.582 228.612,70.529 227.824,70.668 226.817,64.956 227.605,64.817 227.067,61.765 226.279,61.904 226.105,60.919" style="fill:none;stroke-width:0.050000mm;stroke:black"/>
<polygon points="270.254,62.806 270.427,63.791 269.640,63.930 270.178,66.983 270.966,66.844 271.973,72.556 271.185,72.695 271.723,75.748 272.511,75.609 272.685,76.593 286.472,74.162 286.299,73.178 287.086,73.039 286.548,69.986 285.760,70.125 284.753,64.413 285.541,64.273 285.003,61.221 284.215,61.360 284.041,60.375" style="fill:none;stroke-width:0.050000mm;stroke:black"/>
<polygon points="80.782,61.077 79.994,60.938 79.456,63.991 80.244,64.129 79.236,69.841 78.449,69.702 77.910,72.755 78.698,72.894 78.524,73.879 92.312,76.310 92.485,75.325 93.273,75.464 93.812,72.411 93.024,72.272 94.031,66.561 94.819,66.699 95.357,63.647 94.569,63.508 94.743,62.523 80.955,60.092" style="fill:none;stroke-width:0.050000mm;stroke:black"/>
<polygon points="22.846,60.533 22.058,60.394 21.520,63.447 22.308,63.586 21.301,69.298 20.513,69.159 19.974,72.212 20.762,72.351 20.589,73.335 34.376,75.766 34.550,74.782 35.337,74.921 35.876,71.868 35.088,71.729 36.095,66.017 36.883,66.156 37.421,63.103 36.633,62.964 36.807,61.979 23.020,59.548" style="fill:none;stroke-width:0.050000mm;stroke:black"/>
<polygon points="173.143,60.586 173.317,61.570 172.529,61.709 173.067,64.761 173.855,64.623 174.862,70.335 174.074,70.474 174.612,73.527 175.400,73.388 175.574,74.373 189.361,71.942 189.188,70.957 189.975,70.818 189.437,67.765 188.649,67.904 187.642,62.192 188.430,62.053 187.892,59.000 187.104,59.139 186.930,58.154" style="fill:none;stroke-width:0.050000mm;stroke:black"/>
<polygon points="119.957,58.312 119.169,58.173 118.631,61.226 119.419,61.365 118.412,67.077 117.624,66.938 117.085,69.991 117.873,70.130 117.700,71.115 131.487,73.546 131.661,72.561 132.448,72.700 132.987,69.647 132.199,69.508 133.206,63.796 133.994,63.935 134.532,60.882 133.744,60.743 133.918,59.759 120.131,57.327" style="fill:none;stroke-width:0.050000mm;stroke:black"/>
<polygon points="191.076,52.587 191.250,53.572 190.462,53.711 191.001,56.764 191.788,56.625 192.796,62.337 192.008,62.476 192.546,65.529 193.334,65.389 193.508,66.375 207.295,63.944 207.121,62.959 207.909,62.820 207.371,59.767 206.583,59.906 205.576,54.194 206.364,54.055 205.825,51.002 205.037,51.141 204.864,50.156" style="fill:none;stroke-width:0.050000mm;stroke:black"/>
<polygon points="102.023,50.314 101.236,50.175 100.697,53.228 101.485,53.367 100.478,59.079 99.690,58.940 99.152,61.993 99.940,62.132 99.766,63.117 113.553,65.548 113.727,64.563 114.515,64.701 115.053,61.649 114.265,61.510 115.272,55.798 116.060,55.937 116.599,52.884 115.811,52.745 115.984,51.760 102.197,49.329" style="fill:none;stroke-width:0.050000mm;stroke:black"/>
<polygon points="248.185,47.354 248.359,48.338 247.571,48.477 248.109,51.530 248.897,51.391 249.904,57.103 249.117,57.242 249.655,60.295 250.443,60.156 250.616,61.141 264.404,58.710 264.230,57.725 265.018,57.586 264.480,54.533 263.692,54.672 262.685,48.960 263.472,48.821 262.934,45.768 262.146,45.907 261.972,44.922" style="fill:none;stroke-width:0.050000mm;stroke:black"/>
<polygon points="44.915,45.080 44.127,44.941 43.588,47.994 44.376,48.133 43.369,53.845 42.581,53.706 42.043,56.759 42.831,56.898 42.657,57.883 56.445,60.314 56.618,59.329 57.406,59.468 57.944,56.415 57.156,56.276 58.164,50.564 58.951,50.703 59.490,47.650 58.702,47.511 58.876,46.527 45.088,44.095" style="fill:none;stroke-width:0.050000mm;stroke:black"/>
<polygon points="228.598,45.971 228.771,46.956 227.983,47.095 228.522,50.148 229.310,50.009 230.317,55.721 229.529,55.860 230.067,58.913 230.855,58.774 231.029,59.759 244.816,57.328 244.642,56.343 245.430,56.204 244.892,53.151 244.104,53.290 243.097,47.578 243.885,47.439 243.346,44.386 242.559,44.525 242.385,43.540" style="fill:none;stroke-width:0.050000mm;stroke:black"/>
<polygon points="64.502,43.698 63.714,43.559 63.176,46.612 63.964,46.751 62.957,52.463 62.169,52.324 61.631,55.377 62.418,55.516 62.245,56.501 76.032,58.932 76.206,57.947 76.994,58.086 77.532,55.033 76.744,54.894 77.751,49.182 78.539,49.321 79.077,46.268 78.290,46.129 78.463,45.144 64.676,42.713" style="fill:none;stroke-width:0.050000mm;stroke:black"/>
<polygon points="209.010,44.589 209.184,45.574 208.396,45.713 208.934,48.766 209.722,48.627 210.729,54.339 209.941,54.478 210.480,57.531 211.267,57.392 211.441,58.377 225.228,55.946 225.055,54.961 225.843,54.822 225.304,51.769 224.516,51.908 223.509,46.196 224.297,46.057 223.759,43.004 222.971,43.143 222.797,42.158" style="fill:none;stroke-width:0.050000mm;stroke:black"/>
<polygon points="266.946,44.046 267.119,45.030 266.332,45.169 266.870,48.222 267.658,48.083 268.665,53.795 267.877,53.934 268.415,56.987 269.203,56.848 269.377,57.833 283.164,55.402 282.991,54.417 283.778,54.278 283.240,51.225 282.452,51.364 281.445,45.652 282.233,45.513 281.695,42.460 280.907,42.599 280.733,41.614" style="fill:none;stroke-width:0.050000mm;stroke:black"/>
<polygon points="84.090,42.316 83.302,42.177 82.764,45.230 83.552,45.369 82.544,51.081 81.757,50.942 81.218,53.995 82.006,54.134 81.832,55.119 95.620,57.550 95.793,56.565 96.581,56.704 97.120,53.651 96.332,53.512 97.339,47.800 98.127,47.939 98.665,44.886 97.877,44.747 98.051,43.762 84.263,41.331" style="fill:none;stroke-width:0.050000mm;stroke:black"/>
<polygon points="26.154,41.772 25.366,41.633 24.828,44.686 25.616,44.825 24.609,50.537 23.821,50.398 23.282,53.451 24.070,53.590 23.897,54.575 37.684,57.006 37.858,56.021 38.645,56.160 39.184,53.107 38.396,52.968 39.403,47.256 40.191,47.395 40.729,44.342 39.941,44.203 40.115,43.219 26.328,40.787" style="fill:none;stroke-width:0.050000mm;stroke:black"/>
<polygon points="169.835,41.825 170.009,42.810 169.221,42.949 169.759,46.002 170.547,45.863 171.554,51.575 170.766,51.713 171.304,54.766 172.092,54.627 172.266,55.612 186.053,53.181 185.880,52.196 186.667,52.057 186.129,49.005 185.341,49.143 184.334,43.432 185.122,43.293 184.584,40.240 183.796,40.379 183.622,39.394" style="fill:none;stroke-width:0.050000mm;stroke:black"/>
<polygon points="123.265,39.552 122.477,39.413 121.939,42.466 122.727,42.605 121.720,48.316 120.932,48.178 120.393,51.230 121.181,51.369 121.008,52.354 134.795,54.785 134.969,53.800 135.756,53.939 136.295,50.886 135.507,50.748 136.514,45.036 137.302,45.175 137.840,42.122 137.052,41.983 137.226,40.998 123.439,38.567" style="fill:none;stroke-width:0.050000mm;stroke:black"/>
<polygon points="187.768,33.827 187.942,34.812 187.154,34.951 187.693,38.003 188.480,37.865 189.488,43.576 188.700,43.715 189.238,46.768 190.026,46.629 190.200,47.614 203.987,45.183 203.813,44.198 204.601,44.059 204.063,41.006 203.275,41.145 202.268,35.433 203.056,35.295 202.517,32.242 201.729,32.381 201.556,31.396" style="fill:none;stroke-width:0.050000mm;stroke:black"/>
<polygon points="105.331,31.554 104.544,31.415 104.005,34.468 104.793,34.606 103.786,40.318 102.998,40.179 102.460,43.232 103.248,43.371 103.074,44.356 116.861,46.787 117.035,45.802 117.823,45.941 118.361,42.888 117.573,42.749 118.580,37.038 119.368,37.176 119.907,34.124 119.119,33.985 119.292,33.000 105.505,30.569" style="fill:none;stroke-width:0.050000mm;stroke:black"/>
<polygon points="244.877,28.593 245.051,29.578 244.263,29.717 244.801,32.770 245.589,32.631 246.596,38.343 245.809,38.481 246.347,41.534 247.135,41.395 247.308,42.380 261.096,39.949 260.922,38.964 261.710,38.825 261.172,35.773 260.383,35.912 259.376,30.200 260.164,30.061 259.626,27.008 258.838,27.147 258.665,26.162" style="fill:none;stroke-width:0.050000mm;stroke:black"/>
<polygon points="48.223,26.320 47.435,26.181 46.896,29.234 47.684,29.373 46.677,35.085 45.889,34.946 45.351,37.998 46.139,38.137 45.965,39.122 59.753,41.553 59.926,40.568 60.714,40.707 61.252,37.654 60.464,37.516 61.472,31.804 62.259,31.943 62.798,28.890 62.010,28.751 62.184,27.766 48.396,25.335" style="fill:none;stroke-width:0.050000mm;stroke:black"/>
<polygon points="225.290,27.211 225.463,28.196 224.675,28.335 225.214,31.387 226.002,31.249 227.009,36.960 226.221,37.099 226.759,40.152 227.547,40.013 227.721,40.998 241.508,38.567 241.334,37.582 242.122,37.443 241.584,34.390 240.796,34.529 239.789,28.817 240.577,28.679 240.038,25.626 239.251,25.765 239.077,24.780" style="fill:none;stroke-width:0.050000mm;stroke:black"/>
<polygon points="67.810,24.938 67.022,24.799 66.484,27.852 67.272,27.990 66.265,33.702 65.477,33.563 64.939,36.616 65.726,36.755 65.553,37.740 79.340,40.171 79.514,39.186 80.302,39.325 80.840,36.272 80.052,36.133 81.059,30.422 81.847,30.560 82.385,27.508 81.598,27.369 81.771,26.384 67.984,23.953" style="fill:none;stroke-width:0.050000mm;stroke:black"/>
<polygon points="205.702,25.829 205.876,26.813 205.088,26.952 205.626,30.005 206.414,29.866 207.421,35.578 206.633,35.717 207.172,38.770 207.959,38.631 208.133,39.616 221.920,37.185 221.747,36.200 222.535,36.061 221.996,33.008 221.208,33.147 220.201,27.435 220.989,27.296 220.451,24.243 219.663,24.382 219.489,23.398" style="fill:none;stroke-width:0.050000mm;stroke:black"/>
<polygon points="263.638,25.285 263.811,26.270 263.024,26.409 263.562,29.462 264.350,29.323 265.357,35.035 264.569,35.173 265.107,38.226 265.895,38.087 266.069,39.072 279.856,36.641 279.683,35.656 280.470,35.517 279.932,32.465 279.144,32.604 278.137,26.892 278.925,26.753 278.387,23.700 277.599,23.839 277.425,22.854" style="fill:none;stroke-width:0.050000mm;stroke:black"/>
<polygon points="87.398,23.555 86.610,23.416 86.072,26.469 86.860,26.608 85.852,32.320 85.065,32.181 84.526,35.234 85.314,35.373 85.140,36.358 98.928,38.789 99.101,37.804 99.889,37.943 100.428,34.890 99.640,34.751 100.647,29.039 101.435,29.178 101.973,26.125 101.185,25.986 101.359,25.002 87.571,22.571" style="fill:none;stroke-width:0.050000mm;stroke:black"/>
<polygon points="29.462,23.012 28.674,22.873 28.136,25.926 28.924,26.065 27.917,31.777 27.129,31.638 26.590,34.690 27.378,34.829 27.205,35.814 40.992,38.245 41.166,37.260 41.953,37.399 42.492,34.346 41.704,34.208 42.711,28.496 43.499,28.635 44.037,25.582 43.249,25.443 43.423,24.458 29.636,22.027" style="fill:none;stroke-width:0.050000mm;stroke:black"/>
<polygon points="152.359,7.479 151.913,7.706 151.559,8.059 151.332,8.506 151.253,9.001 151.332,9.495 151.559,9.941 151.913,10.295 152.359,10.522 152.853,10.601 153.348,10.522 153.794,10.295 154.148,9.941 154.375,9.495 154.453,9.001 154.375,8.506 154.148,8.059 153.794,7.706 153.348,7.479 152.853,7.401" style="fill:none;stroke-width:0.050000mm;stroke:black"/>
<polygon points="296.212,7.479 295.766,7.706 295.412,8.059 295.185,8.506 295.106,9.001 295.185,9.495 295.412,9.941 295.766,10.295 296.212,10.522 296.706,10.601 297.201,10.522 297.647,10.295 298.001,9.941 298.228,9.495 298.306,9.001 298.228,8.506 298.001,8.059 297.647,7.706 297.201,7.479 296.706,7.401" style="fill:none;stroke-width:0.050000mm;stroke:black"/>
<polygon points="8.506,7.479 8.059,7.706 7.706,8.059 7.479,8.506 7.400,9.001 7.479,9.495 7.706,9.941 8.059,10.295 8.506,10.522 9.001,10.601 9.495,10.522 9.941,10.295 10.295,9.941 10.522,9.495 10.601,9.001 10.522,8.506 10.295,8.059 9.941,7.706 9.495,7.479 9.001,7.401" style="fill:none;stroke-width:0.050000mm;stroke:black"/>
</svg>